<svg width="133" height="218" viewBox="0 0 133 218" fill="none" xmlns="http://www.w3.org/2000/svg">
<path d="M2.496 151.04V148.4H12.48C16.416 148.4 19.328 149.072 21.216 150.416C23.136 151.76 24.096 154.304 24.096 158.048C24.096 161.76 23.104 164.512 21.12 166.304C19.168 168.064 16.288 168.944 12.48 168.944H8.784V179.36H12.192V182H2.496V179.36H5.52V151.04H2.496ZM12.24 151.04H8.784V166.304H12.24C15.12 166.304 17.264 165.68 18.672 164.432C20.112 163.152 20.832 161.088 20.832 158.24C20.832 155.36 20.128 153.44 18.72 152.48C17.312 151.52 15.152 151.04 12.24 151.04ZM32.7818 179.6H36.7657V182H26.6858V179.6H29.6618V160.4H26.4458V158H32.7818V163.808C35.3098 160.096 37.7898 158.208 40.2218 158.144C40.4138 158.144 40.6058 158.144 40.7978 158.144L43.4858 158.48L42.2378 161.36C41.6298 161.072 40.8458 160.928 39.8858 160.928C37.5818 160.96 35.2138 162.624 32.7818 165.92V179.6ZM48.0278 171.248C48.0278 174.096 48.8438 176.176 50.4758 177.488C52.1078 178.768 54.0118 179.408 56.1878 179.408C57.5958 179.408 59.0358 179.28 60.5078 179.024C62.0118 178.736 63.0038 178.48 63.4838 178.256L64.1078 180.512C63.3718 180.992 62.1558 181.392 60.4598 181.712C58.7958 182.032 57.2598 182.192 55.8518 182.192C54.4758 182.192 53.2278 182.048 52.1078 181.76C51.0198 181.472 49.8998 180.96 48.7478 180.224C47.5958 179.488 46.6838 178.336 46.0117 176.768C45.3398 175.2 45.0038 173.28 45.0038 171.008C45.0038 166.784 46.0918 163.552 48.2678 161.312C50.5398 158.976 53.1798 157.808 56.1878 157.808C59.1958 157.808 61.4838 158.64 63.0518 160.304C64.6518 161.968 65.4518 164.304 65.4518 167.312C65.4518 167.952 65.4038 168.64 65.3078 169.376H48.1718C48.0758 170.048 48.0278 170.672 48.0278 171.248ZM62.5718 166.976C62.5718 164.992 61.9798 163.472 60.7958 162.416C59.6118 161.328 58.2358 160.784 56.6678 160.784C54.5238 160.784 52.7478 161.44 51.3398 162.752C49.9318 164.032 48.9878 165.616 48.5078 167.504H62.5718C62.5718 167.312 62.5718 167.136 62.5718 166.976ZM79.2859 179.648L81.1579 179.552L81.3019 181.472C81.2699 181.472 81.0459 181.52 80.6299 181.616C79.6699 181.84 78.5979 181.952 77.4139 181.952C76.3259 181.888 75.3339 181.712 74.4379 181.424C73.5419 181.104 72.7099 180.464 71.9419 179.504C71.1739 178.512 70.7899 177.248 70.7899 175.712V160.784H68.3419L68.7259 158.48L70.8379 158.048L71.2219 153.44L73.9099 153.2V158H79.7179V160.784H73.9099V174.896C73.9099 178.064 75.7019 179.648 79.2859 179.648ZM94.614 179.648L96.486 179.552L96.63 181.472C96.598 181.472 96.374 181.52 95.958 181.616C94.998 181.84 93.926 181.952 92.742 181.952C91.654 181.888 90.662 181.712 89.766 181.424C88.87 181.104 88.038 180.464 87.27 179.504C86.502 178.512 86.118 177.248 86.118 175.712V160.784H83.67L84.054 158.48L86.166 158.048L86.55 153.44L89.238 153.2V158H95.046V160.784H89.238V174.896C89.238 178.064 91.03 179.648 94.614 179.648ZM117.436 160.4V158H126.268V160.4H123.388L113.836 182L112.252 191.552H116.284V193.952H106.156V191.552H109.132L110.62 182H109.804L102.028 160.4H98.7638V158H108.892V160.4H105.58L111.916 179.744L120.076 160.4H117.436Z" fill="#AF7A7D"/>
<path d="M19.482 208V198.9H23.408C24.422 198.9 25.2063 199.104 25.761 199.511C26.3243 199.918 26.606 200.495 26.606 201.24C26.606 201.734 26.489 202.15 26.255 202.488C26.0297 202.826 25.7177 203.082 25.319 203.255C24.929 203.428 24.5 203.515 24.032 203.515L24.253 203.203C24.8337 203.203 25.332 203.294 25.748 203.476C26.1727 203.649 26.502 203.914 26.736 204.269C26.97 204.616 27.087 205.049 27.087 205.569C27.087 206.34 26.801 206.938 26.229 207.363C25.6657 207.788 24.812 208 23.668 208H19.482ZM20.444 207.207H23.655C24.4523 207.207 25.0633 207.073 25.488 206.804C25.9127 206.527 26.125 206.089 26.125 205.491C26.125 204.902 25.9127 204.473 25.488 204.204C25.0633 203.927 24.4523 203.788 23.655 203.788H20.34V202.995H23.343C24.071 202.995 24.6343 202.856 25.033 202.579C25.4403 202.302 25.644 201.89 25.644 201.344C25.644 200.789 25.4403 200.378 25.033 200.109C24.6343 199.832 24.071 199.693 23.343 199.693H20.444V207.207ZM31.9868 208.065C31.2761 208.065 30.6521 207.918 30.1148 207.623C29.5774 207.32 29.1571 206.908 28.8538 206.388C28.5504 205.859 28.3988 205.257 28.3988 204.581C28.3988 203.905 28.5418 203.307 28.8278 202.787C29.1224 202.267 29.5211 201.86 30.0238 201.565C30.5351 201.262 31.1071 201.11 31.7398 201.11C32.3811 201.11 32.9488 201.257 33.4428 201.552C33.9454 201.838 34.3398 202.245 34.6258 202.774C34.9118 203.294 35.0548 203.896 35.0548 204.581C35.0548 204.624 35.0504 204.672 35.0418 204.724C35.0418 204.767 35.0418 204.815 35.0418 204.867H29.1008V204.178H34.5478L34.1838 204.451C34.1838 203.957 34.0754 203.519 33.8588 203.138C33.6508 202.748 33.3648 202.445 33.0008 202.228C32.6368 202.011 32.2164 201.903 31.7398 201.903C31.2718 201.903 30.8514 202.011 30.4788 202.228C30.1061 202.445 29.8158 202.748 29.6078 203.138C29.3998 203.528 29.2958 203.974 29.2958 204.477V204.62C29.2958 205.14 29.4084 205.599 29.6338 205.998C29.8678 206.388 30.1884 206.696 30.5958 206.921C31.0118 207.138 31.4841 207.246 32.0128 207.246C32.4288 207.246 32.8144 207.172 33.1698 207.025C33.5338 206.878 33.8458 206.652 34.1058 206.349L34.6258 206.947C34.3224 207.311 33.9411 207.588 33.4818 207.779C33.0311 207.97 32.5328 208.065 31.9868 208.065ZM41.0201 208V206.492L40.9811 206.245V203.723C40.9811 203.142 40.8164 202.696 40.4871 202.384C40.1664 202.072 39.6854 201.916 39.0441 201.916C38.6021 201.916 38.1817 201.99 37.7831 202.137C37.3844 202.284 37.0464 202.479 36.7691 202.722L36.3531 202.033C36.6997 201.738 37.1157 201.513 37.6011 201.357C38.0864 201.192 38.5977 201.11 39.1351 201.11C40.0191 201.11 40.6994 201.331 41.1761 201.773C41.6614 202.206 41.9041 202.869 41.9041 203.762V208H41.0201ZM38.6671 208.065C38.1557 208.065 37.7094 207.983 37.3281 207.818C36.9554 207.645 36.6694 207.411 36.4701 207.116C36.2707 206.813 36.1711 206.466 36.1711 206.076C36.1711 205.721 36.2534 205.4 36.4181 205.114C36.5914 204.819 36.8687 204.585 37.2501 204.412C37.6401 204.23 38.1601 204.139 38.8101 204.139H41.1631V204.828H38.8361C38.1774 204.828 37.7181 204.945 37.4581 205.179C37.2067 205.413 37.0811 205.703 37.0811 206.05C37.0811 206.44 37.2327 206.752 37.5361 206.986C37.8394 207.22 38.2641 207.337 38.8101 207.337C39.3301 207.337 39.7764 207.22 40.1491 206.986C40.5304 206.743 40.8077 206.397 40.9811 205.946L41.1891 206.583C41.0157 207.034 40.7124 207.393 40.2791 207.662C39.8544 207.931 39.3171 208.065 38.6671 208.065ZM47.232 208.065C46.6514 208.065 46.1444 207.957 45.711 207.74C45.2777 207.523 44.9397 207.198 44.697 206.765C44.463 206.332 44.346 205.79 44.346 205.14V201.175H45.269V205.036C45.269 205.764 45.4467 206.314 45.802 206.687C46.166 207.051 46.673 207.233 47.323 207.233C47.7997 207.233 48.2114 207.138 48.558 206.947C48.9134 206.748 49.182 206.462 49.364 206.089C49.5547 205.716 49.65 205.27 49.65 204.75V201.175H50.573V208H49.689V206.128L49.832 206.466C49.6154 206.969 49.2774 207.363 48.818 207.649C48.3674 207.926 47.8387 208.065 47.232 208.065ZM55.3034 208.065C54.6621 208.065 54.1681 207.892 53.8214 207.545C53.4747 207.198 53.3014 206.709 53.3014 206.076V199.667H54.2244V206.024C54.2244 206.423 54.3241 206.73 54.5234 206.947C54.7314 207.164 55.0261 207.272 55.4074 207.272C55.8147 207.272 56.1527 207.155 56.4214 206.921L56.7464 207.584C56.5644 207.749 56.3434 207.87 56.0834 207.948C55.8321 208.026 55.5721 208.065 55.3034 208.065ZM52.0794 201.942V201.175H56.3044V201.942H52.0794ZM58.3517 210.587C58.031 210.587 57.7234 210.535 57.4287 210.431C57.1427 210.327 56.8957 210.171 56.6877 209.963L57.1167 209.274C57.29 209.439 57.4764 209.564 57.6757 209.651C57.8837 209.746 58.1134 209.794 58.3647 209.794C58.668 209.794 58.928 209.707 59.1447 209.534C59.37 209.369 59.5824 209.075 59.7817 208.65L60.2237 207.649L60.3277 207.506L63.1357 201.175H64.0457L60.6267 208.819C60.436 209.261 60.2237 209.612 59.9897 209.872C59.7644 210.132 59.5174 210.314 59.2487 210.418C58.98 210.531 58.681 210.587 58.3517 210.587ZM60.1717 208.195L57.0257 201.175H57.9877L60.7697 207.441L60.1717 208.195ZM70.5809 208.065C70.0176 208.065 69.4846 207.987 68.9819 207.831C68.4793 207.666 68.0849 207.463 67.7989 207.22L68.2149 206.492C68.4923 206.7 68.8476 206.882 69.2809 207.038C69.7143 207.185 70.1693 207.259 70.6459 207.259C71.2959 207.259 71.7639 207.159 72.0499 206.96C72.3359 206.752 72.4789 206.479 72.4789 206.141C72.4789 205.89 72.3966 205.695 72.2319 205.556C72.0759 205.409 71.8679 205.3 71.6079 205.231C71.3479 205.153 71.0576 205.088 70.7369 205.036C70.4163 204.984 70.0956 204.923 69.7749 204.854C69.4629 204.785 69.1769 204.685 68.9169 204.555C68.6569 204.416 68.4446 204.23 68.2799 203.996C68.1239 203.762 68.0459 203.45 68.0459 203.06C68.0459 202.687 68.1499 202.354 68.3579 202.059C68.5659 201.764 68.8693 201.535 69.2679 201.37C69.6753 201.197 70.1693 201.11 70.7499 201.11C71.1919 201.11 71.6339 201.171 72.0759 201.292C72.5179 201.405 72.8819 201.556 73.1679 201.747L72.7649 202.488C72.4616 202.28 72.1366 202.133 71.7899 202.046C71.4433 201.951 71.0966 201.903 70.7499 201.903C70.1346 201.903 69.6796 202.011 69.3849 202.228C69.0989 202.436 68.9559 202.705 68.9559 203.034C68.9559 203.294 69.0339 203.498 69.1899 203.645C69.3546 203.792 69.5669 203.909 69.8269 203.996C70.0956 204.074 70.3859 204.139 70.6979 204.191C71.0186 204.243 71.3349 204.308 71.6469 204.386C71.9676 204.455 72.2579 204.555 72.5179 204.685C72.7866 204.806 72.9989 204.984 73.1549 205.218C73.3196 205.443 73.4019 205.742 73.4019 206.115C73.4019 206.514 73.2893 206.86 73.0639 207.155C72.8473 207.441 72.5266 207.666 72.1019 207.831C71.6859 207.987 71.1789 208.065 70.5809 208.065ZM79.3726 208V206.492L79.3336 206.245V203.723C79.3336 203.142 79.1689 202.696 78.8396 202.384C78.5189 202.072 78.0379 201.916 77.3966 201.916C76.9546 201.916 76.5343 201.99 76.1356 202.137C75.7369 202.284 75.3989 202.479 75.1216 202.722L74.7056 202.033C75.0523 201.738 75.4683 201.513 75.9536 201.357C76.4389 201.192 76.9503 201.11 77.4876 201.11C78.3716 201.11 79.0519 201.331 79.5286 201.773C80.0139 202.206 80.2566 202.869 80.2566 203.762V208H79.3726ZM77.0196 208.065C76.5083 208.065 76.0619 207.983 75.6806 207.818C75.3079 207.645 75.0219 207.411 74.8226 207.116C74.6233 206.813 74.5236 206.466 74.5236 206.076C74.5236 205.721 74.6059 205.4 74.7706 205.114C74.9439 204.819 75.2213 204.585 75.6026 204.412C75.9926 204.23 76.5126 204.139 77.1626 204.139H79.5156V204.828H77.1886C76.5299 204.828 76.0706 204.945 75.8106 205.179C75.5593 205.413 75.4336 205.703 75.4336 206.05C75.4336 206.44 75.5853 206.752 75.8886 206.986C76.1919 207.22 76.6166 207.337 77.1626 207.337C77.6826 207.337 78.1289 207.22 78.5016 206.986C78.8829 206.743 79.1603 206.397 79.3336 205.946L79.5416 206.583C79.3683 207.034 79.0649 207.393 78.6316 207.662C78.2069 207.931 77.6696 208.065 77.0196 208.065ZM82.7636 208V198.354H83.6866V208H82.7636ZM89.0368 208.065C88.3781 208.065 87.7844 207.918 87.2558 207.623C86.7358 207.32 86.3241 206.908 86.0208 206.388C85.7174 205.859 85.5658 205.257 85.5658 204.581C85.5658 203.896 85.7174 203.294 86.0208 202.774C86.3241 202.254 86.7358 201.847 87.2558 201.552C87.7758 201.257 88.3694 201.11 89.0368 201.11C89.7128 201.11 90.3108 201.257 90.8308 201.552C91.3594 201.847 91.7711 202.254 92.0658 202.774C92.3691 203.294 92.5208 203.896 92.5208 204.581C92.5208 205.257 92.3691 205.859 92.0658 206.388C91.7711 206.908 91.3594 207.32 90.8308 207.623C90.3021 207.918 89.7041 208.065 89.0368 208.065ZM89.0368 207.246C89.5308 207.246 89.9684 207.138 90.3498 206.921C90.7311 206.696 91.0301 206.384 91.2468 205.985C91.4721 205.578 91.5848 205.11 91.5848 204.581C91.5848 204.044 91.4721 203.576 91.2468 203.177C91.0301 202.778 90.7311 202.471 90.3498 202.254C89.9684 202.029 89.5351 201.916 89.0498 201.916C88.5644 201.916 88.1311 202.029 87.7498 202.254C87.3684 202.471 87.0651 202.778 86.8398 203.177C86.6144 203.576 86.5018 204.044 86.5018 204.581C86.5018 205.11 86.6144 205.578 86.8398 205.985C87.0651 206.384 87.3684 206.696 87.7498 206.921C88.1311 207.138 88.5601 207.246 89.0368 207.246ZM97.8892 201.11C98.4438 201.11 98.9292 201.218 99.3452 201.435C99.7698 201.643 100.099 201.964 100.333 202.397C100.576 202.83 100.697 203.376 100.697 204.035V208H99.7742V204.126C99.7742 203.407 99.5922 202.865 99.2282 202.501C98.8728 202.128 98.3702 201.942 97.7202 201.942C97.2348 201.942 96.8102 202.042 96.4462 202.241C96.0908 202.432 95.8135 202.713 95.6142 203.086C95.4235 203.45 95.3282 203.892 95.3282 204.412V208H94.4052V201.175H95.2892V203.047L95.1462 202.696C95.3628 202.202 95.7095 201.816 96.1862 201.539C96.6628 201.253 97.2305 201.11 97.8892 201.11Z" fill="black"/>
<path d="M59.9668 85.0004L62.0425 85L62.4382 91.0575L62.8891 98.503C63.0874 104.043 63.0256 109.68 62.657 115.206C62.3174 120.299 61.708 125.37 60.9609 130.397L60.3632 134.362C60.2774 134.914 60.2296 135.636 60.0473 136.152C59.9903 136.313 59.8885 136.457 59.7978 136.593C59.5821 136.808 59.3901 136.967 59.1015 136.997C58.8607 137.021 58.5831 136.917 58.4016 136.726C58.2438 136.56 58.0986 136.328 58.0283 136.088C57.9752 135.907 58.0101 135.597 58.0265 135.404C58.0862 134.703 58.225 133.986 58.3371 133.295C59.4728 126.29 60.3671 119.147 60.7112 112.017C61.1459 103.006 60.7262 93.9672 59.9668 85.0004Z" fill="white"/>
<path d="M38.2891 4C38.971 4.28692 39.6082 4.67207 40.2508 5.04759C43.685 7.05447 47.0892 10.2529 49 13.9809C48.3239 15.4332 47.7242 16.9116 47.19 18.4323L46.4806 20.7258C46.3744 21.1016 46.2875 21.6942 46.0863 22L45.9514 21.9128L43.2218 19.5908C40.6562 17.5962 37.8996 15.9255 35.0192 14.5272L35.0022 14.4467C34.9776 13.9986 35.169 13.3209 35.243 12.8595C35.7591 9.64314 36.6551 6.76152 38.2891 4Z" fill="white"/>
<path d="M82.8713 3C83.3659 3.95077 83.7709 5.06055 84.1261 6.10492C85.1043 8.97965 85.6425 11.8131 86 14.8925L83.0404 16.6855C80.5111 18.3096 77.9935 20.2831 75.8744 22.6634L75.5673 23C75.0413 20.5686 74.4541 18.16 73.6198 15.8635C73.5173 15.5815 72.9437 14.2754 73.0045 14.0721C73.0597 13.8872 73.234 13.6464 73.3267 13.481L74.0854 12.1579C75.7107 9.40358 77.7615 6.87908 80.0613 5.01783C80.9687 4.2835 81.9317 3.66602 82.8713 3Z" fill="white"/>
<path d="M110.837 83.029L110.962 83L111 83.0554C104.671 86.5823 100.962 93.2716 96.6077 99.2087C93.9546 102.827 91.1456 106.27 88.0522 109.416C85.6379 111.872 83.1023 114.151 80.4346 116.248L67.1371 125.954L67.0861 126L67 125.981L67.6391 124.588C72.6527 114.075 79.5734 104.701 87.8272 97.206L92.6809 93.1883C98.2547 88.838 104.329 85.2434 110.837 83.029Z" fill="white"/>
<path d="M105.492 81.0549C106.118 80.9712 106.802 81.0069 107.431 81.0115C109.651 81.0277 111.817 81.3496 114 81.7801L109.366 83.2305C105.838 84.4671 102.413 86.2008 99.1506 88.1652C89.5787 93.9287 81.0374 102.24 74.3702 112.006C71.4957 116.216 69.0092 120.698 66.8159 125.414C66.5335 126.024 66.1481 126.701 65.9523 127.346C65.9114 127.481 65.9021 127.557 65.8181 127.671C65.5504 128.038 65.1393 128.362 64.8319 128.695C64.1718 129.412 63.5672 130.185 63 131C63.6372 127.685 64.5607 124.381 65.5575 121.188C67.7698 114.104 70.5713 107.349 74.4939 101.286C75.1856 100.217 75.8724 99.1476 76.633 98.1411C78.3955 95.8086 80.2567 93.5645 82.3188 91.5749C87.2415 86.8258 93.5037 83.3673 99.7986 81.88C101.685 81.4344 103.575 81.2118 105.492 81.0549Z" fill="white"/>
<path d="M60.6415 0C61.8189 1.02923 62.8606 2.3643 63.8496 3.62465C68.3196 9.32069 71.5659 16.0617 73 23.6028C71.639 25.1813 70.5244 27.12 69.498 29C67.0837 24.5276 63.974 20.3914 60.5891 16.8767C59.9879 17.3102 59.4525 18.0295 58.954 18.6088C56.2806 21.715 53.9315 25.1467 51.8207 28.7845L48 23.4025C48.0635 22.8124 48.2284 22.2329 48.3741 21.6645L49.0503 19.2037C51.3196 11.8564 55.4801 5.00272 60.6415 0Z" fill="white"/>
<path d="M14.0449 81L17.6042 81.1212C22.1136 81.5527 26.6651 82.8188 30.8 84.9068C36.5281 87.7993 41.6852 92.3794 45.7183 97.7876C51.0645 104.956 54.8764 113.754 56.4026 122.986C56.8395 125.629 57.1388 128.307 56.9343 131L55.4035 126.38C54.1172 123.131 52.534 120.16 50.8371 117.168C49.0911 114.089 47.0683 111.143 44.9908 108.343C37.3688 98.0705 27.6153 89.3359 16.4857 84.4887C15.1748 83.9178 13.849 83.4799 12.5033 83.0326L8 81.6752L14.0449 81Z" fill="white"/>
<path d="M11 83C11.5569 83.0721 12.1945 83.393 12.7384 83.5877C15.9061 84.7218 18.9575 86.142 21.922 87.8587C27.3623 91.0089 32.4715 95.31 36.9684 100.007C41.3456 104.579 45.2981 109.809 48.7166 115.349C51.6936 120.173 54.3818 125.361 56 131C54.1623 128.96 52.1708 127.337 50.0699 125.685L44.4087 121.257C41.2418 118.726 38.2946 115.861 35.5106 112.799C32.2064 109.165 29.2493 105.215 26.4386 101.075C22.5305 95.319 19.0546 88.8639 13.6666 84.7347C12.8117 84.0796 11.9066 83.5512 11 83Z" fill="white"/>
<path d="M96.2318 13L96.3098 13.1394C96.449 13.0502 96.4794 12.9909 96.6434 13.0133C96.3504 14.0157 96.0151 15.0029 95.7841 16.0267C94.7594 20.5657 94.7226 25.0721 95.2428 29.6969L96.6311 39.7542C97.818 50.0304 96.235 60.962 90.5051 69.32C84.9033 77.4909 76.4424 82.6972 67.3667 84L69.6851 82.451C77.0176 76.6746 80.5393 66.4806 80.4816 56.6315C80.4701 54.6779 80.2443 52.7642 80.1312 50.8208C79.9412 47.5542 80.0601 44.3302 80.5697 41.1046C81.1673 37.3225 82.262 33.7598 83.7283 30.2983C86.0457 24.8286 89.2214 19.8795 93.2766 15.8736C94.1598 15.001 95.0511 14.1396 96.0156 13.3815L95.9952 13.304L94.4377 14.5471C93.4946 15.3468 92.5423 16.1526 91.6721 17.0517C88.332 20.5021 85.6055 24.713 83.5115 29.2273C82.5664 31.2649 81.6868 33.3539 81.0075 35.5245C79.8132 39.3401 79.1945 43.4431 79.1244 47.4818C79.0899 49.4697 79.2413 51.4399 79.3251 53.4225C79.4866 57.2449 79.2923 60.9516 78.4085 64.6645C76.725 71.7369 72.7962 78.5324 67.0814 82.2443L67 82.2173C71.6667 78.6333 74.4057 72.2894 75.804 66.2954C76.4345 63.593 76.844 60.7578 76.9462 57.962C77.1793 51.5831 75.9146 44.8556 73.7958 38.9646C72.8632 36.3714 71.7185 33.9087 70.4641 31.4967C71.5937 29.487 72.7736 27.4824 74.2358 25.7579C77.6751 21.7016 82.159 18.8476 86.7005 16.6377C89.7938 15.1326 92.9536 13.8881 96.2318 13Z" fill="white"/>
<path d="M24.4863 13L27.0985 13.6596C33.5286 15.6482 39.5612 18.8956 44.6498 23.8522C46.6884 25.8378 48.4333 28.0383 49.9174 30.5852C50.0017 30.7298 50.3587 31.2362 50.3718 31.3799C50.375 31.4146 50.0491 31.9693 50.0074 32.0468L48.616 34.9185C47.4969 37.4194 46.5257 40.0452 45.763 42.7159C44.1732 48.2829 43.4776 54.2729 43.8864 60.116C44.389 67.2989 46.8999 74.5926 51.3002 79.8263C52.1306 80.8138 53.0919 81.6084 54 82.4932C52.8075 81.8405 51.701 80.8804 50.6894 79.9148C46.7489 76.1535 43.7556 70.9006 42.4021 65.2384C41.753 62.5232 41.4691 59.6209 41.4741 56.8092C41.4779 54.7047 41.6829 52.6251 41.7618 50.5261C41.8348 48.5909 41.7727 46.6396 41.6215 44.7113C40.9674 36.3672 37.6614 28.068 32.9151 21.7222C31.3873 19.6795 29.6591 17.8373 27.8526 16.121L25.9891 14.4098L25.9069 14.4433C31.6439 19.6974 36.329 26.5466 38.8371 34.4885C40.3488 39.2751 41.026 44.5888 40.8598 49.6717C40.8106 51.1766 40.5642 52.6648 40.4463 54.164C40.1261 58.2367 40.2226 62.46 41.2139 66.4196C42.9253 73.256 46.7026 79.3877 51.993 83.2212C52.3927 83.5108 52.8237 83.7373 53.2372 84C50.3236 83.3287 47.4903 82.7031 44.7169 81.4214C38.797 78.6856 33.6022 74.3026 29.8748 68.3448C28.479 66.1138 27.3641 63.7035 26.4325 61.1798C24.0472 54.7179 23.5884 47.5651 24.3158 40.6614L25.8973 29.5711C26.0735 28.0899 26.1476 26.6146 26.1905 25.1224C26.2958 21.4593 26.0294 17.6445 24.8692 14.196C24.8161 14.0383 24.5559 13.4369 24.6261 13.3075L24.6842 13.2301L24.4863 13Z" fill="white"/>
<path d="M60.4792 19C68.9599 27.8889 75.1888 40.4924 75.9283 53.5759C76.4258 62.3768 74.3561 71.3508 69.0434 78.0442C67.5906 79.8745 65.7458 81.5528 63.6631 82.3805C62.6819 82.7705 61.7254 82.9293 60.6909 82.9994L60.3453 83C58.5195 82.959 56.7023 82.3578 55.1469 81.2862C53.8902 80.4203 52.7677 79.2035 51.7487 78.0216C50.5991 76.6884 49.6255 75.1305 48.7986 73.5306C46.1026 68.3136 44.8929 62.0078 45.0074 56.0041C45.2232 44.6856 49.2123 34.1327 55.423 25.3081C56.9961 23.0729 58.6376 20.9674 60.4792 19Z" fill="white"/>
</svg>
