<svg width="97" height="125" viewBox="0 0 97 125" fill="none" xmlns="http://www.w3.org/2000/svg">
<path d="M47.4148 77.5551L49.3087 77.5547L49.6698 83.0817L50.0812 89.875C50.2621 94.9293 50.2057 100.073 49.8695 105.115C49.5596 109.762 49.0036 114.389 48.322 118.975L47.7766 122.593C47.6983 123.097 47.6546 123.755 47.4883 124.226C47.4363 124.373 47.3434 124.505 47.2607 124.628C47.0638 124.825 46.8887 124.97 46.6254 124.997C46.4056 125.019 46.1524 124.924 45.9868 124.75C45.8428 124.599 45.7103 124.387 45.6462 124.168C45.5977 124.003 45.6296 123.72 45.6445 123.543C45.699 122.904 45.8257 122.25 45.9279 121.62C46.9641 115.228 47.7802 108.711 48.0941 102.205C48.4907 93.9832 48.1077 85.7365 47.4148 77.5551Z" fill="#E4CDC5"/>
<path d="M27.636 3.64966C28.2582 3.91144 28.8396 4.26286 29.4259 4.60549C32.5593 6.43658 35.6653 9.35488 37.4087 12.7563C36.7918 14.0814 36.2447 15.4303 35.7572 16.8178L35.11 18.9105C35.0131 19.2533 34.9338 19.794 34.7502 20.073L34.6272 19.9935L32.1366 17.8748C29.7958 16.0549 27.2806 14.5306 24.6525 13.2548L24.637 13.1813C24.6146 12.7725 24.7892 12.1541 24.8567 11.7332C25.3276 8.79851 26.1452 6.16929 27.636 3.64966Z" fill="#E4CDC5"/>
<path d="M68.3133 2.73724C68.7646 3.60473 69.1341 4.61731 69.4582 5.5702C70.3507 8.19313 70.8418 10.7784 71.168 13.5881L68.4676 15.224C66.1598 16.7058 63.8627 18.5065 61.9293 20.6783L61.6491 20.9854C61.1691 18.767 60.6334 16.5694 59.8722 14.474C59.7786 14.2168 59.2553 13.025 59.3107 12.8396C59.3611 12.6708 59.5202 12.4512 59.6047 12.3002L60.297 11.093C61.7799 8.57992 63.6511 6.27655 65.7495 4.57833C66.5774 3.90832 67.456 3.34492 68.3133 2.73724Z" fill="#E4CDC5"/>
<path d="M93.829 75.7564L93.9431 75.7299L93.978 75.7805C88.2037 78.9984 84.8189 85.1018 80.8463 90.5189C78.4256 93.8198 75.8627 96.9614 73.0402 99.8325C70.8374 102.073 68.5239 104.152 66.0899 106.066L53.9571 114.921L53.9106 114.963L53.832 114.946L54.4152 113.675C58.9896 104.083 65.3041 95.5302 72.8349 88.6916L77.2635 85.0258C82.3491 81.0565 87.8917 77.7768 93.829 75.7564Z" fill="#E4CDC5"/>
<path d="M88.9529 73.9552C89.5236 73.8788 90.1474 73.9114 90.7219 73.9155C92.747 73.9303 94.7235 74.224 96.7152 74.6168L92.4873 75.9402C89.2684 77.0685 86.1434 78.6503 83.1665 80.4426C74.433 85.7013 66.6399 93.2844 60.5567 102.195C57.934 106.036 55.6652 110.126 53.664 114.428C53.4064 114.985 53.0547 115.603 52.8761 116.192C52.8388 116.315 52.8303 116.384 52.7536 116.489C52.5094 116.823 52.1343 117.118 51.8538 117.423C51.2515 118.077 50.6999 118.782 50.1824 119.526C50.7638 116.501 51.6063 113.486 52.5158 110.573C54.5344 104.109 57.0905 97.9458 60.6695 92.4142C61.3006 91.4388 61.9272 90.4632 62.6213 89.5448C64.2294 87.4166 65.9275 85.369 67.809 83.5538C72.3005 79.2206 78.0142 76.065 83.7577 74.708C85.4788 74.3015 87.2029 74.0983 88.9529 73.9552Z" fill="#E4CDC5"/>
<path d="M48.0306 0C49.1048 0.939081 50.0553 2.15721 50.9576 3.30717C55.0361 8.50428 57.9981 14.6548 59.3066 21.5354C58.0648 22.9756 57.0478 24.7446 56.1113 26.4599C53.9084 22.3792 51.0712 18.6053 47.9827 15.3985C47.4342 15.794 46.9457 16.4503 46.4908 16.9788C44.0516 19.813 41.9083 22.9441 39.9824 26.2632L36.4963 21.3526C36.5542 20.8143 36.7047 20.2854 36.8377 19.7669L37.4547 17.5216C39.5251 10.8179 43.3213 4.56453 48.0306 0Z" fill="#E4CDC5"/>
<path d="M5.51543 73.9051L8.76297 74.0157C12.8774 74.4094 17.0302 75.5646 20.803 77.4697C26.0293 80.1089 30.7347 84.2878 34.4145 89.2222C39.2925 95.7632 42.7704 103.79 44.1629 112.213C44.5616 114.625 44.8347 117.068 44.6481 119.526L43.2514 115.31C42.0777 112.346 40.6332 109.635 39.0849 106.905C37.4918 104.096 35.6462 101.408 33.7507 98.8534C26.7964 89.4803 17.8972 81.5109 7.74242 77.0882C6.54634 76.5673 5.3367 76.1678 4.10884 75.7596L0 74.5212L5.51543 73.9051Z" fill="#E4CDC5"/>
<path d="M2.7373 75.7299C3.2454 75.7957 3.82722 76.0885 4.32342 76.2661C7.21366 77.3009 9.99782 78.5968 12.7026 80.163C17.6664 83.0373 22.328 86.9616 26.4311 91.2472C30.4249 95.4185 34.0312 100.191 37.1503 105.245C39.8665 109.647 42.3192 114.38 43.7957 119.526C42.1189 117.665 40.3019 116.183 38.385 114.676L33.2197 110.636C30.3302 108.327 27.6411 105.713 25.101 102.919C22.0862 99.6029 19.3881 95.9993 16.8236 92.222C13.2578 86.9699 10.0864 81.0802 5.17032 77.3127C4.39029 76.7149 3.56454 76.2328 2.7373 75.7299Z" fill="#E4CDC5"/>
<path d="M80.5034 11.8613L80.5746 11.9885C80.7016 11.9071 80.7293 11.8531 80.8789 11.8735C80.6116 12.7881 80.3057 13.6888 80.0949 14.6229C79.1599 18.7643 79.1264 22.876 79.601 27.0957L80.8677 36.2721C81.9507 45.6482 80.5063 55.6222 75.2783 63.2482C70.1671 70.7034 62.4474 75.4537 54.1666 76.6423L56.282 75.2291C62.9722 69.9586 66.1854 60.6575 66.1327 51.6711C66.1223 49.8886 65.9163 48.1425 65.8131 46.3693C65.6397 43.3889 65.7482 40.4473 66.2131 37.5042C66.7584 34.0534 67.7572 30.8027 69.0951 27.6444C71.2095 22.6538 74.107 18.1382 77.8071 14.4832C78.6129 13.6871 79.4261 12.9011 80.3061 12.2094L80.2875 12.1387L78.8664 13.2729C78.0059 14.0026 77.1371 14.7378 76.343 15.5581C73.2956 18.7063 70.8079 22.5483 68.8973 26.6673C68.0349 28.5264 67.2324 30.4324 66.6126 32.4129C65.5229 35.8943 64.9584 39.6379 64.8944 43.3229C64.863 45.1366 65.0011 46.9342 65.0776 48.7431C65.2249 52.2308 65.0476 55.6128 64.2412 59.0005C62.7052 65.4534 59.1206 71.6537 53.9063 75.0405L53.832 75.0158C58.09 71.7457 60.5891 65.9575 61.8649 60.4885C62.4402 58.0228 62.8138 55.436 62.907 52.8851C63.1197 47.0649 61.9658 40.9267 60.0326 35.5516C59.1816 33.1856 58.1372 30.9386 56.9927 28.7378C58.0234 26.9042 59.0999 25.0752 60.434 23.5017C63.5721 19.8007 67.6632 17.1967 71.807 15.1804C74.6293 13.8072 77.5123 12.6716 80.5034 11.8613Z" fill="#E4CDC5"/>
<path d="M15.0423 11.8613L17.4257 12.4632C23.2926 14.2776 28.7968 17.2405 33.4397 21.7629C35.2997 23.5747 36.8918 25.5824 38.2459 27.9062C38.3228 28.0381 38.6485 28.5002 38.6605 28.6313C38.6635 28.6629 38.3661 29.1691 38.328 29.2398L37.0585 31.8599C36.0375 34.1418 35.1513 36.5376 34.4554 38.9744C33.0049 44.0538 32.3701 49.5191 32.7431 54.8503C33.2017 61.4041 35.4927 68.0589 39.5076 72.8342C40.2652 73.7353 41.1424 74.4603 41.9709 75.2675C40.8829 74.672 39.8732 73.796 38.9503 72.915C35.3549 69.4831 32.6239 64.6903 31.3889 59.5241C30.7966 57.0467 30.5376 54.3986 30.5421 51.8332C30.5456 49.9131 30.7326 48.0156 30.8047 46.1004C30.8713 44.3348 30.8146 42.5544 30.6767 40.795C30.0798 33.1817 27.0634 25.6095 22.7329 19.8196C21.3389 17.9557 19.762 16.2749 18.1138 14.709L16.4135 13.1477L16.3385 13.1782C21.573 17.9721 25.8478 24.2214 28.1362 31.4676C29.5154 35.8349 30.1333 40.6832 29.9817 45.3209C29.9368 46.694 29.7119 48.0518 29.6044 49.4197C29.3122 53.1357 29.4003 56.9891 30.3047 60.6018C31.8662 66.8394 35.3127 72.4341 40.1397 75.9318C40.5044 76.196 40.8976 76.4026 41.2749 76.6423C38.6165 76.0298 36.0314 75.459 33.5009 74.2896C28.0995 71.7934 23.3598 67.7943 19.9589 62.3584C18.6853 60.3228 17.6681 58.1237 16.8181 55.821C14.6417 49.9251 14.2231 43.3988 14.8867 37.0999L16.3298 26.9809C16.4905 25.6295 16.5582 24.2834 16.5973 22.9219C16.6934 19.5797 16.4503 16.099 15.3917 12.9526C15.3433 12.8086 15.1059 12.2599 15.1699 12.1419L15.2229 12.0713L15.0423 11.8613Z" fill="#E4CDC5"/>
<path d="M47.8824 17.3358C55.6202 25.4461 61.3035 36.9456 61.9783 48.8831C62.4322 56.9131 60.5438 65.1011 55.6965 71.2082C54.3709 72.8782 52.6877 74.4095 50.7874 75.1647C49.8921 75.5205 49.0194 75.6654 48.0756 75.7294L47.7602 75.7299C46.0943 75.6925 44.4363 75.144 43.0171 74.1662C41.8705 73.3761 40.8463 72.266 39.9166 71.1876C38.8677 69.9711 37.9794 68.5497 37.2249 67.09C34.765 62.3299 33.6613 56.5764 33.7658 51.0986C33.9627 40.7716 37.6024 31.143 43.2691 23.0913C44.7044 21.0519 46.2021 19.1308 47.8824 17.3358Z" fill="#E4CDC5"/>
</svg>
