<svg width="249" height="33" viewBox="0 0 249 33" fill="none" xmlns="http://www.w3.org/2000/svg">
<path d="M20.024 25V23.68H21.56V10.984L16.088 21.856H14.456L8.984 10.984V23.68H10.952V25H6.104V23.68H7.472V9.52H6.104V8.2H9.104L15.272 20.488L21.44 8.2H24.608V9.52H23.072V23.68H24.872V25H20.024Z" fill="#837D7C"/>
<rect x="0.5" y="0.5" width="248" height="32" rx="16" stroke="#837D7C"/>
<path d="M29 16.5C29 24.5393 22.7013 31 15 31C7.29867 31 1 24.5393 1 16.5C1 8.46071 7.29867 2 15 2C22.7013 2 29 8.46071 29 16.5Z" stroke="#837D7C" stroke-width="2"/>
<path d="M58.832 25V8.2H72.968V25H71.216V9.256L71.672 9.736H60.128L60.584 9.256V25H58.832ZM84.7327 25.12C83.6447 25.12 82.6607 24.872 81.7807 24.376C80.9007 23.864 80.1967 23.136 79.6687 22.192C79.1567 21.232 78.9007 20.064 78.9007 18.688C78.9007 17.312 79.1567 16.152 79.6687 15.208C80.1807 14.248 80.8767 13.52 81.7567 13.024C82.6367 12.528 83.6287 12.28 84.7327 12.28C85.9327 12.28 87.0047 12.552 87.9487 13.096C88.9087 13.624 89.6607 14.376 90.2047 15.352C90.7487 16.312 91.0207 17.424 91.0207 18.688C91.0207 19.968 90.7487 21.088 90.2047 22.048C89.6607 23.008 88.9087 23.76 87.9487 24.304C87.0047 24.848 85.9327 25.12 84.7327 25.12ZM78.2287 29.656V12.4H79.8607V16.192L79.6927 18.712L79.9327 21.256V29.656H78.2287ZM84.6127 23.608C85.5087 23.608 86.3087 23.408 87.0127 23.008C87.7167 22.592 88.2767 22.016 88.6927 21.28C89.1087 20.528 89.3167 19.664 89.3167 18.688C89.3167 17.712 89.1087 16.856 88.6927 16.12C88.2767 15.384 87.7167 14.808 87.0127 14.392C86.3087 13.976 85.5087 13.768 84.6127 13.768C83.7167 13.768 82.9087 13.976 82.1887 14.392C81.4847 14.808 80.9247 15.384 80.5087 16.12C80.1087 16.856 79.9087 17.712 79.9087 18.688C79.9087 19.664 80.1087 20.528 80.5087 21.28C80.9247 22.016 81.4847 22.592 82.1887 23.008C82.9087 23.408 83.7167 23.608 84.6127 23.608ZM102.436 25V22.216L102.364 21.76V17.104C102.364 16.032 102.06 15.208 101.452 14.632C100.86 14.056 99.9715 13.768 98.7875 13.768C97.9715 13.768 97.1955 13.904 96.4595 14.176C95.7235 14.448 95.0995 14.808 94.5875 15.256L93.8195 13.984C94.4595 13.44 95.2275 13.024 96.1235 12.736C97.0195 12.432 97.9635 12.28 98.9555 12.28C100.588 12.28 101.844 12.688 102.724 13.504C103.62 14.304 104.068 15.528 104.068 17.176V25H102.436ZM98.0915 25.12C97.1475 25.12 96.3235 24.968 95.6195 24.664C94.9315 24.344 94.4035 23.912 94.0355 23.368C93.6675 22.808 93.4835 22.168 93.4835 21.448C93.4835 20.792 93.6355 20.2 93.9395 19.672C94.2595 19.128 94.7715 18.696 95.4755 18.376C96.1955 18.04 97.1555 17.872 98.3555 17.872H102.7V19.144H98.4035C97.1875 19.144 96.3395 19.36 95.8595 19.792C95.3955 20.224 95.1635 20.76 95.1635 21.4C95.1635 22.12 95.4435 22.696 96.0035 23.128C96.5635 23.56 97.3475 23.776 98.3555 23.776C99.3155 23.776 100.14 23.56 100.828 23.128C101.532 22.68 102.044 22.04 102.364 21.208L102.748 22.384C102.428 23.216 101.868 23.88 101.068 24.376C100.284 24.872 99.2915 25.12 98.0915 25.12ZM123.556 25L119.236 18.76L120.652 17.92L125.596 25H123.556ZM116.404 19.384V17.92H120.388V19.384H116.404ZM120.82 18.88L119.188 18.64L123.388 12.4H125.236L120.82 18.88ZM108.628 25H106.588L111.532 17.92L112.924 18.76L108.628 25ZM116.932 25H115.228V12.4H116.932V25ZM115.756 19.384H111.796V17.92H115.756V19.384ZM111.388 18.88L106.948 12.4H108.796L112.972 18.64L111.388 18.88ZM133.267 25.12C132.019 25.12 130.899 24.848 129.907 24.304C128.931 23.744 128.163 22.984 127.603 22.024C127.043 21.048 126.763 19.936 126.763 18.688C126.763 17.424 127.043 16.312 127.603 15.352C128.163 14.392 128.931 13.64 129.907 13.096C130.899 12.552 132.019 12.28 133.267 12.28C134.339 12.28 135.307 12.488 136.171 12.904C137.035 13.32 137.715 13.944 138.211 14.776L136.939 15.64C136.507 15 135.971 14.528 135.331 14.224C134.691 13.92 133.995 13.768 133.243 13.768C132.347 13.768 131.539 13.976 130.819 14.392C130.099 14.792 129.531 15.36 129.115 16.096C128.699 16.832 128.491 17.696 128.491 18.688C128.491 19.68 128.699 20.544 129.115 21.28C129.531 22.016 130.099 22.592 130.819 23.008C131.539 23.408 132.347 23.608 133.243 23.608C133.995 23.608 134.691 23.456 135.331 23.152C135.971 22.848 136.507 22.384 136.939 21.76L138.211 22.624C137.715 23.44 137.035 24.064 136.171 24.496C135.307 24.912 134.339 25.12 133.267 25.12ZM150.75 25L145.566 18.76L146.982 17.92L152.766 25H150.75ZM141.51 25V12.4H143.214V25H141.51ZM142.686 19.384V17.92H146.742V19.384H142.686ZM147.126 18.88L145.542 18.64L150.558 12.4H152.406L147.126 18.88ZM163.045 25V22.216L162.973 21.76V17.104C162.973 16.032 162.669 15.208 162.061 14.632C161.469 14.056 160.581 13.768 159.397 13.768C158.581 13.768 157.805 13.904 157.069 14.176C156.333 14.448 155.709 14.808 155.197 15.256L154.429 13.984C155.069 13.44 155.837 13.024 156.733 12.736C157.629 12.432 158.573 12.28 159.565 12.28C161.197 12.28 162.453 12.688 163.333 13.504C164.229 14.304 164.677 15.528 164.677 17.176V25H163.045ZM158.701 25.12C157.757 25.12 156.933 24.968 156.229 24.664C155.541 24.344 155.013 23.912 154.645 23.368C154.277 22.808 154.093 22.168 154.093 21.448C154.093 20.792 154.245 20.2 154.549 19.672C154.869 19.128 155.381 18.696 156.085 18.376C156.805 18.04 157.765 17.872 158.965 17.872H163.309V19.144H159.013C157.797 19.144 156.949 19.36 156.469 19.792C156.005 20.224 155.773 20.76 155.773 21.4C155.773 22.12 156.053 22.696 156.613 23.128C157.173 23.56 157.957 23.776 158.965 23.776C159.925 23.776 160.749 23.56 161.437 23.128C162.141 22.68 162.653 22.04 162.973 21.208L163.357 22.384C163.037 23.216 162.477 23.88 161.677 24.376C160.893 24.872 159.901 25.12 158.701 25.12ZM177.349 25V20.464L177.661 20.824H173.389C171.773 20.824 170.509 20.472 169.597 19.768C168.685 19.064 168.229 18.04 168.229 16.696C168.229 15.256 168.717 14.184 169.693 13.48C170.669 12.76 171.973 12.4 173.605 12.4H178.909V25H177.349ZM168.133 25L171.589 20.152H173.365L169.981 25H168.133ZM177.349 19.96V13.384L177.661 13.888H173.653C172.485 13.888 171.573 14.112 170.917 14.56C170.277 15.008 169.957 15.736 169.957 16.744C169.957 18.616 171.149 19.552 173.533 19.552H177.661L177.349 19.96Z" fill="#837D7C"/>
</svg>
